<?xml version="1.0" encoding="UTF-8"?>
<svg id="Layer_1" data-name="Layer 1" xmlns="http://www.w3.org/2000/svg" viewBox="0 0 3000 538.91">
  <defs>
    <style>
      .cls-1 {
        fill: #ed1c24;
      }
    </style>
  </defs>
  <g>
    <rect class="cls-1" x="215.56" y="215.57" width="107.78" height="107.78"/>
    <polygon class="cls-1" points="538.91 0 538.91 538.91 0 538.91 0 431.13 431.12 431.13 431.12 107.79 107.78 107.79 107.78 323.35 0 323.35 0 0 538.91 0"/>
  </g>
  <g>
    <path class="cls-1" d="M844.43,.01V115.49h-153.97V423.43h230.96V.01h-76.99Zm0,346.43h-76.98V192.48h76.98v153.96Z"/>
    <path class="cls-1" d="M959.91,115.49V423.43h76.98V115.49h-76.98ZM959.91,.01V77h76.98V.01h-76.98Z"/>
    <path class="cls-1" d="M1306.34,192.48V115.49h-230.95v192.46h153.97v38.49h-153.97v76.99h230.95V230.97h-153.97v-38.49h153.97Z"/>
    <path class="cls-1" d="M1575.79,192.48V115.49h-230.96V423.43h230.96v-76.99h-153.97V192.48h153.97Z"/>
    <path class="cls-1" d="M1614.28,115.49V423.43h76.98V115.49h-76.98ZM1614.28,.01V77h76.98V.01h-76.98Z"/>
    <path class="cls-1" d="M1729.76,115.49v423.42h76.98v-115.48h153.97V115.49h-230.95Zm153.96,230.95h-76.98V192.48h76.98v153.96Z"/>
    <path class="cls-1" d="M1999.2,.01V423.43h76.99V.01h-76.99Z"/>
    <path class="cls-1" d="M2114.68,115.49V423.43h76.98V115.49h-76.98ZM2114.68,.01V77h76.98V.01h-76.98Z"/>
    <path class="cls-1" d="M2230.16,115.49V423.43h76.98V192.48h76.99v230.95h76.98V115.49h-230.95Z"/>
    <path class="cls-1" d="M2730.56,307.95V115.49h-230.96V423.43h230.96v-76.99h-153.97v-38.49h153.97Zm-153.97-115.47h76.98v38.49h-76.98v-38.49Z"/>
    <path class="cls-1" d="M2923.02,.01V115.49h-153.97V423.43h230.95V.01h-76.98Zm0,346.43h-76.99V192.48h76.99v153.96Z"/>
  </g>
</svg>